<?xml version="1.0" encoding="utf-8"?>
<!-- Generator: Adobe Illustrator 26.0.1, SVG Export Plug-In . SVG Version: 6.00 Build 0)  -->
<svg version="1.1" id="Laag_1" xmlns="http://www.w3.org/2000/svg" xmlns:xlink="http://www.w3.org/1999/xlink" x="0px" y="0px"
	 viewBox="0 0 266.8 189.3" style="enable-background:new 0 0 266.8 189.3;" xml:space="preserve">
<style type="text/css">
	.st0{fill:#5B5958;}
	.st1{fill:#FFC600;}
</style>
<g>
	<g>
		<path class="st0" d="M18.8,125.3v0.8h-5.4L25,156.5l11.8-30.4h-5.1v-0.8h10.7v0.8h-4.8l-15.8,40.7h-1.6L4.7,126.1H0v-0.8
			C0,125.3,18.8,125.3,18.8,125.3z"/>
		<path class="st0" d="M54.1,141.2v23.3h3.8v0.8H43.5v-0.8h3.8V142h-3.8v-0.8H54.1z M47.9,126.3c0.8-0.8,1.7-1.2,2.8-1.2
			s2,0.4,2.8,1.2c0.8,0.8,1.2,1.7,1.2,2.8s-0.4,2-1.2,2.8s-1.7,1.2-2.8,1.2s-2-0.4-2.8-1.2s-1.2-1.7-1.2-2.8S47.1,127.1,47.9,126.3z
			"/>
		<path class="st0" d="M90.8,164.5v0.8H80.3v-4.2h-0.1c-0.6,1.6-1.4,2.8-2.5,3.6s-2.4,1.3-4.1,1.3c-1.8,0-3.5-0.4-5-1.1
			c-1.5-0.7-2.8-1.7-3.8-2.8c-1.1-1.2-1.9-2.5-2.5-4.1c-0.6-1.5-0.9-3.1-0.9-4.8c0-1.3,0.2-2.7,0.7-4.2s1.2-2.9,2.2-4.2
			s2.3-2.3,3.8-3.2c1.5-0.8,3.4-1.3,5.6-1.3c1.7,0,3.1,0.4,4.1,1.2s1.9,2,2.4,3.5h0.1v-19.5h-3.8v-0.8H87v39.7h3.8V164.5z M80,149.3
			c-0.1-1.4-0.4-2.7-0.8-3.9s-1-2.2-1.9-3c-0.8-0.8-1.9-1.2-3.3-1.2c-0.9,0-1.7,0.2-2.4,0.6c-0.7,0.4-1.2,1.1-1.6,2
			s-0.7,2.2-0.9,3.7c-0.2,1.6-0.3,3.5-0.3,5.7c0,1.8,0,3.5,0.1,5s0.3,2.7,0.6,3.8c0.3,1,0.8,1.9,1.4,2.4c0.6,0.6,1.5,0.8,2.5,0.8
			c1.6,0,2.8-0.4,3.7-1.2c0.9-0.8,1.5-1.8,2-3c0.4-1.2,0.7-2.5,0.8-3.9c0.1-1.4,0.1-2.7,0.1-3.8C80.2,152,80.1,150.7,80,149.3z"/>
		<path class="st0" d="M118.7,165.8c-1,0.1-1.9,0.2-2.8,0.2c-1.9,0-3.3-0.3-4.2-1c-0.9-0.7-1.5-1.6-1.7-2.8h-0.1
			c-0.6,1.5-1.4,2.5-2.5,3c-1,0.5-2.6,0.8-4.5,0.8c-0.9,0-1.8-0.1-2.8-0.3c-0.9-0.2-1.8-0.5-2.6-0.9c-0.8-0.4-1.4-1-1.9-1.7
			s-0.7-1.6-0.7-2.7c0-1.1,0.2-2,0.6-2.7s1-1.3,1.7-1.9c0.7-0.5,1.5-0.9,2.4-1.2s1.8-0.6,2.7-0.9c1.5-0.4,2.8-0.8,3.7-1.2
			c1-0.3,1.7-0.7,2.2-1c0.5-0.4,0.9-0.8,1.1-1.2s0.3-1,0.3-1.7v-3.4c0-1-0.2-1.9-0.7-2.8c-0.5-0.8-1.4-1.2-2.8-1.2
			c-0.9,0-1.6,0.2-2.2,0.6c-0.6,0.4-1,1.1-1,2.2c0,0.1,0,0.3,0.1,0.6c0,0.3,0.1,0.6,0.1,0.9c0,0.3,0.1,0.7,0.1,1s0.1,0.5,0.1,0.6
			c0,0.6-0.1,1-0.4,1.3s-0.6,0.6-0.9,0.7c-0.4,0.1-0.7,0.2-1.1,0.3c-0.4,0-0.7,0-1,0c-0.4,0-0.8,0-1.2-0.1s-0.7-0.2-1-0.4
			s-0.6-0.5-0.8-0.9c-0.2-0.4-0.3-0.9-0.3-1.5c0-1,0.3-1.8,0.8-2.6s1.3-1.4,2.2-1.9s1.9-0.9,3.1-1.2c1.1-0.3,2.3-0.4,3.6-0.4
			c1.4,0,2.8,0.1,4,0.3c1.3,0.2,2.3,0.6,3.3,1.2c0.9,0.6,1.6,1.4,2.2,2.4c0.5,1,0.8,2.3,0.8,3.9v13.9c0,0.7,0.1,1.3,0.3,1.9
			c0.2,0.5,0.7,0.8,1.5,0.8c0.5,0,0.9-0.1,1.2-0.3c0.3-0.2,0.6-0.4,0.9-0.8l0.5,0.5C120.4,165.2,119.7,165.6,118.7,165.8z
			 M109.5,151.4c-0.1,0.2-0.2,0.4-0.4,0.6c-0.2,0.2-0.6,0.4-1.1,0.7c-0.7,0.3-1.4,0.7-2.1,1s-1.3,0.7-1.9,1.2s-1,1.1-1.4,1.8
			s-0.5,1.6-0.5,2.8c0,0.4,0,1,0.1,1.6s0.2,1.2,0.4,1.7c0.2,0.6,0.6,1,1.1,1.4s1.2,0.6,2,0.6c0.5,0,1-0.1,1.4-0.3
			c0.5-0.2,0.9-0.6,1.3-1c0.4-0.5,0.7-1.1,0.9-1.9c0.2-0.8,0.3-1.7,0.3-2.8v-7.4L109.5,151.4L109.5,151.4z"/>
	</g>
	<g>
		<path class="st1" d="M145.1,125.5v0.8H140v38.4h9.3c1.2,0,2.5-0.2,3.7-0.6c1.3-0.4,2.4-1.1,3.5-2c1.1-1,2.1-2.2,3-3.7
			s1.6-3.4,2-5.5h0.7v12.7h-35.6v-0.8h5.2v-38.4h-5.2v-0.8L145.1,125.5L145.1,125.5z"/>
		<path class="st1" d="M177.3,141.4v23.3h3.8v0.8h-14.4v-0.8h3.8v-22.5h-3.8v-0.8H177.3z M171,126.5c0.8-0.8,1.7-1.2,2.8-1.2
			s2,0.4,2.8,1.2c0.8,0.8,1.2,1.7,1.2,2.8s-0.4,2-1.2,2.8s-1.7,1.2-2.8,1.2s-2-0.4-2.8-1.2s-1.2-1.7-1.2-2.8S170.2,127.3,171,126.5z
			"/>
		<path class="st1" d="M184,125.8V125h10.6v20.3h0.1c0.6-1.6,1.4-2.8,2.4-3.5c1-0.8,2.4-1.2,4.1-1.2c2.2,0,4,0.4,5.6,1.3
			c1.5,0.8,2.8,1.9,3.8,3.2s1.7,2.7,2.2,4.2s0.7,2.9,0.7,4.2c0,1.7-0.3,3.3-0.9,4.8c-0.6,1.5-1.4,2.9-2.5,4.1
			c-1.1,1.2-2.3,2.1-3.8,2.8s-3.2,1.1-5,1.1c-1.7,0-3.1-0.4-4.1-1.3c-1.1-0.8-1.9-2-2.5-3.6h-0.1v4.2H184v-0.8h3.7v-38.9L184,125.8
			L184,125.8z M194.7,157.3c0.1,1.4,0.4,2.7,0.8,3.9c0.4,1.2,1.1,2.2,2,3s2.1,1.2,3.7,1.2c1,0,1.9-0.3,2.5-0.8
			c0.6-0.6,1.1-1.4,1.4-2.4c0.3-1,0.5-2.3,0.6-3.8s0.1-3.1,0.1-5c0-2.2-0.1-4.1-0.3-5.7c-0.2-1.6-0.5-2.8-0.9-3.7s-0.9-1.6-1.6-2
			c-0.6-0.4-1.4-0.6-2.4-0.6c-1.4,0-2.5,0.4-3.3,1.2s-1.4,1.8-1.9,3c-0.4,1.2-0.7,2.5-0.8,3.9s-0.2,2.8-0.2,4
			C194.6,154.6,194.7,155.9,194.7,157.3z"/>
		<path class="st1" d="M228.3,141.4v4.7h0.1c0.7-1.4,1.6-2.6,2.7-3.7c1.1-1,2.6-1.5,4.5-1.5c1.6,0,2.8,0.4,3.8,1.3
			c1,0.8,1.5,2,1.5,3.5c0,1.1-0.3,2-0.8,2.6s-1.4,1-2.6,1c-0.9,0-1.6-0.2-2.4-0.5c-0.7-0.4-1.1-1-1.1-2c0-0.1,0-0.3,0.1-0.6
			c0-0.3,0.1-0.6,0.1-0.9c0.1-0.3,0.1-0.6,0.1-0.9c0-0.3,0.1-0.4,0.1-0.4c0-0.3-0.1-0.5-0.2-0.7c-0.1-0.2-0.2-0.3-0.4-0.4
			c-0.2-0.1-0.4-0.2-0.8-0.2c-0.4,0-0.8,0.2-1.4,0.5c-0.6,0.4-1.1,0.9-1.6,1.5c-0.5,0.7-0.9,1.5-1.3,2.4c-0.4,1-0.5,2-0.5,3.2v14.4
			h4.4v0.8h-14.9v-0.8h3.6v-22.5h-3.6v-0.8L228.3,141.4L228.3,141.4z"/>
		<path class="st1" d="M250.1,153.9c0,1.3,0.1,2.7,0.2,4.1c0.1,1.4,0.4,2.6,0.9,3.7c0.5,1.1,1.2,2,2.1,2.7c0.9,0.7,2.2,1.1,3.9,1.1
			c1.5,0,2.8-0.3,3.8-0.8c1-0.6,1.9-1.2,2.5-1.9c0.7-0.7,1.1-1.5,1.5-2.2c0.3-0.7,0.5-1.2,0.5-1.6l0.8,0.3c-0.2,0.7-0.5,1.5-1,2.3
			c-0.4,0.8-1.1,1.6-1.9,2.2c-0.8,0.7-1.8,1.3-2.9,1.7c-1.2,0.5-2.6,0.7-4.2,0.7c-1.9,0-3.8-0.3-5.4-0.9c-1.7-0.6-3.2-1.4-4.4-2.5
			c-1.3-1.1-2.2-2.5-2.9-4c-0.7-1.6-1.1-3.4-1.1-5.4c0-1.6,0.3-3.2,1-4.7s1.6-2.9,2.8-4.1c1.2-1.2,2.6-2.1,4.2-2.9
			c1.6-0.7,3.3-1.1,5.1-1.1c1.3,0,2.6,0.2,3.9,0.6c1.3,0.4,2.5,1,3.5,1.9s1.9,2,2.6,3.3c0.7,1.4,1,3,1,4.9H250v2.6H250.1z
			 M259.1,146.8c0-0.4,0-0.9-0.1-1.5c0-0.6-0.2-1.2-0.4-1.8c-0.2-0.6-0.6-1.1-1.1-1.5s-1.2-0.6-2.1-0.6c-1.3,0-2.3,0.3-2.9,0.9
			c-0.7,0.6-1.2,1.4-1.5,2.3c-0.3,0.9-0.6,1.9-0.6,3c-0.1,1.1-0.2,2.1-0.2,3.1h9v-3.9H259.1z"/>
	</g>
</g>
<g>
	<g>
		<path class="st1" d="M138.8,66.8c8.1,0,15.6,2.5,21.9,6.9c-7.2-6.8-17.1-12.2-27.9-12.2c-20.3,0-37.6,16.7-40.7,38.5h8.4
			C103.6,81.2,119.6,66.8,138.8,66.8z"/>
		<path class="st1" d="M144.9,79.1c10.2,0,19.4,5,25.2,12.7c-5.2-10.4-16.4-17.5-29.3-17.5c-16.1,0-28.4,8.3-32.5,25.8h6.9
			C119.7,87.8,131.3,79.1,144.9,79.1z"/>
	</g>
	<path class="st1" d="M266.6,99.6l-63.4-4.1c-4.6-0.3-9.3-3.4-9.6-9.6l0,0c0.2-2.7,1.2-5.5,2.9-7.2l18.3-19.1l-27,1.6
		c-5.7,0.2-9.2-4.2-9.2-4.2c-2.4-3-3.3-6.7-2.5-10.6l6.1-29.3L161,34.9c-3,2.4-14,6.6-18.1-6.3L133.4,0v0.4V0l-9.6,28.6
		c-4,12.8-15,8.7-18,6.3L84.3,17.1l6.2,29.3C91.3,50.3,90.4,54,88,57c0,0-3.5,4.4-9.2,4.2l-27-1.6l18.3,19.1c1.7,1.8,2.9,4.5,3,7.3
		c-0.4,6.2-5,9.2-9.5,9.5L0.2,99.6c-0.1,0-0.3,0.1,0,0.2h84.7l0,0c0.2-1.7,0.5-3.5,0.9-5.2c2.2-15.5,12.2-28.5,26-34.8
		c6.4-3.3,15.3-5.1,22.5-5.2c11,0.1,22.1,4.3,30.9,12.2c9.8,8.8,15.3,20.6,16.8,33l0,0l0,0h84.7C267,99.7,266.7,99.6,266.6,99.6z"/>
</g>
</svg>
