<svg xmlns="http://www.w3.org/2000/svg" xmlns:xlink="http://www.w3.org/1999/xlink" viewBox="0 0 284 284" enable-background="new 0 0 284 284"><style type="text/css">.st0{clip-path:url(#SVGID_2_);fill:#FFFFFF;} .st1{clip-path:url(#SVGID_2_);fill-rule:evenodd;clip-rule:evenodd;fill:#5291CE;} .st2{fill-rule:evenodd;clip-rule:evenodd;fill:#E30613;} .st3{fill-rule:evenodd;clip-rule:evenodd;fill:#002D44;}</style><defs><path id="SVGID_1_" d="M0 0h284v284h-284z"/></defs><clipPath id="SVGID_2_"><use xlink:href="#SVGID_1_" overflow="visible"/></clipPath><path class="st0" d="M282.8 283.2v-282.1h-282.1v282.1h282.1z"/><path class="st1" d="M283.5 27.7v-27.3h-283.5v27.3h283.5zm0 256.2v-96.8l-141.7 88.2-141.8-88.2v96.8h283.5z"/><path class="st2" d="M54 75.9c1.6-.7 2.9-1.7 3.9-3 1.8-2.3 2.6-5.2 2.6-8.1 0-3.1-.6-5.8-1.8-7.9-2.8-5.2-8.7-7.5-15.5-7.5h-25.4v54.5h27.9c8.7 0 16.8-5.2 17.1-14.8v-.5c0-5.5-3.1-11.5-8.8-12.7zm-22.8-15h10c3.1 0 5.4 1.7 5.4 5.1s-2 5.1-4.6 5.1h-10.8v-10.2zm16.9 28.1c-.7 2.7-3 3.5-6 3.5h-10.9v-10.9h11.4c3.1 0 5.7 1.4 5.7 5.4 0 .8-.1 1.4-.2 2zM154 73c-2.1-.9-4.4-1.6-6.9-2.1-3.4-.9-10.8-1.1-10.8-6 0-3.4 3.4-4.8 6.5-4.8 4 0 8.3 2.3 11.4 4.6l7.1-7.6.9-1c-5.1-4.6-12.8-8-19.9-8-7.1 0-14.2 3.2-17.7 8.9h.1-.1c-1.4 2.3-2.2 5-2.2 8.2 0 2.9.7 5.5 2 7.8 1.9 3.3 5 5.9 9.1 7.2 5.4 2 8.5 2.3 12 3.1 2.3.6 4.3 2.3 4.3 4.6 0 .4 0 .7-.1 1.1-.5 2.7-3.1 4-5.9 4-3.8 0-7.8-1.9-11.2-4.1-1.4-.9-2.7-1.9-3.8-2.8l-2.6 2.8-5.9 6.3c6.5 5.7 13.7 9.4 22.5 9.4 10 0 20-5.2 21-15.7l.1-1.6c-.3-7.5-4.2-11.8-9.9-14.3zM203.7 85.9c-.6 1.1-1.3 2.2-2.2 3.1-1.8 1.9-4.3 3.2-7.2 3.2-3.7 0-6.4-1.2-8.3-3.2-2.7-2.9-3.9-7.4-3.9-12.7 0-1.1.1-2.2.2-3.3.8-6.6 4.4-12.1 11.5-12.1 4.8 0 8 2.8 10 6.3l10.8-7.1c-.7-1.1-1.4-2.1-2.1-3-4.8-5.9-11.4-8.6-19.2-8.6-8.1 0-14.5 3.4-18.8 8.6-3.6 4.3-5.8 9.9-6.3 16-.1 1.1-.2 2.2-.2 3.3 0 4.6.8 9 2.2 12.8 3.8 9.7 12.2 16 24.2 16 6.5 0 15.7-3.7 20.2-11.7l-6.3-4.3-4.6-3.3zM250.9 49.5v19.9h-16.5v-19.9h-14.5v54.3h14.5v-21.3h16.5v21.3h14.5v-54.3zM117.3 73c-.6-6-2.6-11.6-6-16-4.2-5.2-10.6-8.6-19.2-8.6s-15 3.4-19.1 8.6c-3.5 4.3-5.5 10-6 16-.1 1.2-.2 2.3-.2 3.5 0 4.4.7 8.6 2.2 12.5 3.5 9.1 11.3 15.7 23.1 15.7 12 0 19.7-6.6 23.1-15.7 1.5-3.8 2.2-8.1 2.2-12.5 0-1.2 0-2.4-.1-3.5zm-17.8 16c-1.8 1.7-4.2 2.6-7.4 2.6-3.1 0-5.5-1-7.3-2.6-3.1-2.8-4.4-7.5-4.4-12.5 0-1.2.1-2.4.2-3.5.9-6.6 4.4-11.5 11.4-11.5s10.5 5.1 11.4 11.6c.2 1.2.2 2.3.2 3.5.2 5-1.1 9.6-4.1 12.4z"/><path class="st3" d="M55.4 156.8c0-1.8-.3-3.3-.7-4.6-2.1-6-8.4-7.9-14.6-9.3l-4.8-1.1c-2.3-.5-4.3-.9-5.8-1.5-1.8-.8-2.8-1.8-2.8-3.9 0-3.4 3.4-5.7 8.8-5.7 4 0 7.4 1.4 10.2 4.6 1.1 1.1 1.4 1.7 2 2.3l7.1-5.4c-.6-.9-.9-1.4-1.4-2-2.7-2.9-5.6-4.8-8.5-5.9-3-1.1-6.1-1.5-8.8-1.5-3.1 0-6.2.5-9 1.5-5.5 2-9.8 6.2-9.8 13 0 1.1.1 2.1.3 3 1.9 8.6 11.6 9.6 13.6 10.1l5.7 1.4 2.4.5.8.2c2.9.7 5.6 1.8 5.6 5.3 0 1.8-.8 3.4-2.4 4.5-1.6 1.1-3.8 1.7-6.7 1.7-3.6 0-6.3-.7-8.4-1.7-1.8-.9-3.2-2.1-4.4-3.4-1.1-1.1-1.1-1.1-1.7-2l-7.4 5.1.1.2c.4.7 1.5 2.2 3.3 3.7 4.6 4.3 10.8 6 17.1 6 7.7 0 16.4-2.5 19.2-9.7.7-1.6 1-3.4 1-5.4zM98.7 162.1l-6.6-3.7c-1.1 1.7-2.4 2.9-3.7 3.7-1.9 1.1-4 1.5-5.9 1.5-2.4 0-4.4-.5-6.1-1.5-2.5-1.5-4.1-4.1-4.5-7.9h27.3c0-.7 0-1.4-.1-2.1h-.1.1c-.2-4.6-1.3-8.7-3.5-12-2.9-4.4-7.6-7.3-14.7-7.3-7 0-12.1 2.8-15.1 7.3-2.2 3.3-3.4 7.4-3.4 12v.4c0 3.5.8 6.8 2.2 9.6 3 6 9 10 16.9 10 8 0 13.4-3.7 18.2-9.4l-1-.6zm-19.3-21.9c.6-.1 1.2-.2 1.9-.2s1.3.1 1.9.2c3.3.6 5.6 3 6.3 7.5h-17.3c.7-3.7 3.2-6.8 7.2-7.5zM117.2 140v-6h-8.5v37h8.5v-17h.1c.7-8.4 3.7-11.8 11.8-11.8v-9.1c-5.1 0-9.7 1.5-11.9 6.9zM167 134h-9.7l-1.7 6.1-3.2 12-2.5 9.2-2.5-9.2-3.2-12-1.7-6.1h-9.7l2 6.1 3.9 12 3.2 10 2.9 8.9h9.9l3-8.9 3.3-10 3.9-12zM173.5 134h8.8v37h-8.8zM173.5 119.2h8.8v9.1h-8.8zM226.2 160.5l-7.4-4c-.7 1.6-1.6 4-3.6 5.6-1.2 1-2.9 1.7-5.2 1.7-2.2 0-4-.7-5.4-1.8-2.9-2.4-4-6.6-4-9.9v-.1c0-4.8 2.3-11.3 9.1-11.3 4 0 6.8 2.3 8.3 6.3l8-3.7c-.4-1-1-2.1-1.8-3.3-2.5-3.6-7-7.3-14.2-7.3-6.5 0-11.7 2.8-15 7.3h.1-.1c-2.4 3.3-3.7 7.4-3.8 12v.4c0 3.6.7 6.9 2 9.7 2.9 6.3 8.9 10 16.2 10 6.5 0 13.3-3.8 16.1-10 .3-.5.5-1.1.7-1.6zM267.5 162.1l-6.6-3.7c-1.1 1.7-2.4 2.9-3.7 3.7-1.9 1.1-4 1.5-5.9 1.5-2.4 0-4.4-.5-6.1-1.5-2.5-1.5-4.1-4.1-4.5-7.9h27.3c0-.7 0-1.4-.1-2.1h-.1.1c-.2-4.6-1.3-8.7-3.5-12-2.9-4.4-7.6-7.3-14.7-7.3-7 0-12.1 2.8-15.1 7.3-2.2 3.3-3.4 7.4-3.4 12v.4c0 3.5.8 6.8 2.2 9.6 3 6 9 10 16.9 10 8 0 13.4-3.7 18.2-9.4l-1-.6zm-19.3-21.9c.6-.1 1.2-.2 1.9-.2s1.3.1 1.9.2c3.3.6 5.6 3 6.3 7.5h-17.3c.7-3.7 3.2-6.8 7.2-7.5zM118.8 218.7c0 8.8 5.1 16.5 12.5 20.5v-10.5h20.5v10.5c7.4-4 12.5-11.7 12.5-20.5v-.1c-.1-8.8-5.2-16.4-12.5-20.4v10.5h-20.5v-10.5c-7.4 4-12.5 11.6-12.5 20.4v.1zm36.7-13.3c3.1 3.4 4.8 7.6 4.8 13.3v.1c0 5.7-1.7 9.7-4.8 13.1v-26.5zm-24.2 7.1h20.5v12.5h-20.5v-12.5zm-8.5 6.1c0-5.9 1.7-9.9 4.8-13.3v26.5c-3.1-3.4-4.8-7.4-4.8-13.1v-.1zM141.6 186.9c-17.6 0-31.9 14.3-31.9 31.9 0 17.6 14.3 31.9 31.9 31.9 17.6 0 31.9-14.3 31.9-31.9 0-17.7-14.3-31.9-31.9-31.9zm0 59.7c-15.3 0-27.6-12.5-27.6-27.9s12.4-27.9 27.6-27.9c15.3 0 27.6 12.5 27.6 27.9s-12.3 27.9-27.6 27.9z"/></svg>