<?xml version="1.0" encoding="UTF-8"?>
<!DOCTYPE svg PUBLIC "-//W3C//DTD SVG 1.1//EN" "http://www.w3.org/Graphics/SVG/1.1/DTD/svg11.dtd">
<!-- Creator: CorelDRAW 2021 (64-Bit) -->
<svg xmlns="http://www.w3.org/2000/svg" xml:space="preserve" width="88.1786mm" height="86.313mm" version="1.1" style="shape-rendering:geometricPrecision; text-rendering:geometricPrecision; image-rendering:optimizeQuality; fill-rule:evenodd; clip-rule:evenodd"
viewBox="0 0 5684.74 5564.47"
 xmlns:xlink="http://www.w3.org/1999/xlink"
 xmlns:xodm="http://www.corel.com/coreldraw/odm/2003">
 <defs>
  <style type="text/css">
   <![CDATA[
    .fil3 {fill:#787878}
    .fil2 {fill:#CF8A9C}
    .fil1 {fill:#616161}
    .fil0 {fill:white}
   ]]>
  </style>
 </defs>
 <g id="Laag_x0020_1">
  <metadata id="CorelCorpID_0Corel-Layer"/>
  <g id="EPSLogo.eps">
   <path class="fil0" d="M3450.03 2238.86c198.07,144.18 367.57,277.32 508.91,399.75 139.63,122.28 248.15,240.2 325.29,353.55 75.79,115.19 115.68,233.12 120.05,353.89 4.51,120.77 -31.11,251.77 -106.9,392.96 -45.3,78.65 -118.81,151.27 -220.56,218.43 -100.52,65.35 -217.7,128 -351.57,187.78 -132.42,59.64 -267.22,117.18 -403.99,172.4 -136.81,56.78 -262.68,115.08 -377.72,174.7 -114.91,58.27 -206.07,120.77 -272.93,187.78 -125.18,132.41 -261.34,250.47 -408.37,353.71 -145.52,103.41 -300,178.47 -462.86,224.96 -163.05,46.64 -331.25,49.51 -504.38,8.72 -27.62,5.77 -67.04,10.29 -117.91,13.13l0 283.84 2369.1 0 0 -1176.92 1176.92 0 0 -2369.1 -1176.92 0 0 -1177.07 -618.04 0c-5.76,129.67 2.23,263.57 24.16,401.85 23.39,138.32 58.11,271.46 104.77,399.61 46.49,128.05 103.21,243.82 170.26,347.09 66.87,103.41 141.31,186.28 222.69,248.93zm-2334.24 2148.68l-1115.78 0 0 -2369.1 1177.08 0 -2.28 -1015.37c87.42,107.63 171.04,226.43 251.2,355.81 80.05,129.52 153.56,260.57 220.57,393.09 66.89,132.56 125.91,258.47 176.66,377.72 49.65,119.43 89.66,222.85 120.15,310.07 49.65,148.4 75.78,276.6 78.63,384.39 1.52,107.62 -13.87,204.55 -45.87,290.28 -31.85,84.55 -77.13,167.57 -135.27,248.95 -56.76,81.52 -120.18,169.66 -190.06,264.2 -69.74,102.02 -131.05,204.55 -183.41,307.93 -51.05,103.42 -103.43,195.82 -157.34,277.33 -53.73,81.4 -118.49,139.79 -194.28,174.68z"/>
   <path class="fil1" d="M2216.34 3166.85c-8.77,59.79 -35.63,115.78 -80.79,168.16 -45.14,52.39 -96.77,109.33 -155.05,170.32 -58.11,61.29 -111.99,133.29 -161.54,216.3 -46.49,85.76 -94.65,176.04 -144.16,270.68 -49.36,94.53 -101.14,183.42 -155.06,266.32 -53.87,83 -109.9,149.92 -167.99,200.93 -46.54,36.37 -96.93,62.65 -150.85,78.65 -53.72,15.99 -107.62,29.92 -161.5,41.5 -55.27,11.62 -109.18,28.24 -161.56,50.12 -68.4,32.01 -125.91,70.64 -172.4,115.79 -46.65,43.77 -67.78,82.27 -63.42,115.66 42.14,-68.4 94.54,-118.53 157.19,-150.52 64.14,-32.15 133.29,-57.53 207.41,-76.53 75.79,-18.9 151.59,-42.11 227.06,-69.9 75.78,-27.63 147.05,-69.77 214.06,-126.5 82.86,-78.68 155.06,-172.56 216.2,-281.7 62.65,-109.18 122.28,-219.97 179.16,-331.97 56.62,-112.05 118.53,-211.68 185.55,-299.1 46.48,-53.88 93.76,-104.88 141.91,-152.77 46.65,-46.65 81.39,-96.3 104.76,-148.67 56.78,-148.4 74.87,-313.74 54.66,-495.5 -20.37,-182.06 -68.52,-368.34 -144.16,-559.03 -75.79,-190.81 -167.41,-374.06 -275.22,-550.42 -109.18,-174.65 -222.67,-330.32 -340.44,-467.24 -119.41,-135.38 -233.07,-238.64 -340.74,-310.06 93.18,100.56 188.55,222.84 286.09,366.99 98.86,142.53 193.55,298.32 283.82,467.24 90.28,168.78 169.51,341.33 238.08,517.53 68.36,175.99 119.42,347.83 152.76,515.24 33.52,165.92 42.14,318.84 26.14,458.47zm-1641.92 1679.33c-3.02,56.6 22.49,102.49 76.4,137.54 52.37,34.86 120.77,60.37 205.15,76.38 84.56,15.98 171.21,22.48 259.82,19.62 87.41,-2.86 164.56,-13.87 231.57,-32.78 131.06,26.29 246.7,24.78 347.1,-4.2 99,-27.95 187.78,-71.57 266.43,-131.06 80.04,-61.3 152.93,-127.42 218.46,-198.79 66.87,-69.92 132.37,-135.43 196.57,-196.4 128,-112.2 264.15,-204.55 408.18,-277.49 144.04,-72.61 286.68,-138.14 427.97,-196.56 142.55,-58.14 275.06,-121.36 397.49,-189.76 123.67,-67.02 228.57,-151.57 314.31,-253.34 75.79,-93.13 112.77,-184.3 111.43,-272.91 0,-88.93 -26.28,-174.69 -78.65,-257.86 -53.92,-82.89 -120.78,-161.55 -200.93,-235.68 -80.04,-74.27 -161.55,-143.56 -244.44,-207.4 -83.17,-64.02 -155.79,-121.66 -218.44,-172.58 -100.4,-84.36 -194.28,-195.2 -281.54,-331.97 -86.07,-135.26 -151.58,-288.05 -196.56,-458.47 -45.13,-168.93 -56.16,-345.7 -32.78,-530.62 5.75,157.14 37.75,314.43 96.04,471.75 59.78,157.14 131.01,299.05 213.9,425.69 84.53,125.18 166.08,219.84 244.72,283.98 65.51,50.71 142.5,108.26 231.42,172.41 88.79,65.51 178.33,136.77 268.57,213.91 90.12,77.14 171.05,157.92 242.32,242.45 71.42,84.4 123.04,171.82 155.2,261.94 30.5,90.29 31.08,182.07 1.94,275.2 -30.5,91.64 -101.14,182.65 -211.63,272.93 -102.07,80.04 -216.19,152.19 -342.84,216.2 -128.2,65.5 -264.97,128.78 -410.47,190.06 -145.69,60.97 -297.12,126.53 -454.25,196.41 -90.28,42.27 -176.82,99.05 -259.82,170.27 -83.02,71.42 -167.43,146.44 -253.34,224.96 -84.52,80.15 -176.14,152.76 -275.05,218.28 -99.17,65.51 -208.94,114.27 -329.7,146.27 -120.78,30.64 -258.47,34.43 -412.75,11.02 -102.02,26.28 -200.92,35.63 -296.92,28.24 -96.04,-8.63 -180.56,-28.99 -253.34,-60.99 -72.93,-30.48 -124.56,-68.41 -155.05,-113.69 -32.16,-43.61 -34.13,-88.01 -6.49,-132.99z"/>
  </g>
  <path class="fil2" d="M5368.29 1265.25c-63.33,104.35 -139.94,193.84 -230.37,268.51 -90.2,74.51 -190.07,129.41 -299.81,164.72 85.22,172.03 149.61,371.41 193.45,597.79 42.59,227.64 56.25,468.29 40.62,721.89 -15.4,254.79 -68.9,507.73 -160.48,758.39 -92.9,250.87 -231.49,485.34 -415.89,703.62 -185.76,219.55 -425.58,408.07 -719.65,565.2 352.11,-143.63 656.46,-326.6 913.11,-549.01 256.64,-220.98 463.68,-466.87 620.97,-738.08 158.52,-271.18 266.93,-551.76 324.89,-841.84 58.05,-291.53 65.14,-578.2 21.35,-860.19 -45.22,-281.99 -141.29,-545.58 -288.19,-791zm-1704.32 -530.74c-214.14,-61.01 -446.85,-80.54 -698.37,-58.94 -250.07,21.73 -528.74,77.99 -835.74,168.83 147.05,-86.87 306.39,-165.34 477.89,-235.88 172.77,-71.81 352.13,-130.12 537.73,-174.87 185.68,-43.41 374.01,-67.84 564.91,-73.24 -23.25,77.37 -38.11,157.88 -44.44,241.92 -2.57,43.32 -3.32,87.53 -1.97,132.19z"/>
  <circle class="fil3" cx="4766.06" cy="505.61" r="505.61"/>
 </g>
</svg>
