<?xml version="1.0" encoding="utf-8"?>
<!-- Generator: Adobe Illustrator 22.0.0, SVG Export Plug-In . SVG Version: 6.00 Build 0)  -->
<svg version="1.1" id="Layer_2_copy_3" xmlns="http://www.w3.org/2000/svg" xmlns:xlink="http://www.w3.org/1999/xlink" x="0px"
	 y="0px" viewBox="0 0 269.7 119.9" style="enable-background:new 0 0 269.7 119.9;" xml:space="preserve">
<style type="text/css">
	.st0{fill:#005FAA;}
	.st1{fill:#EF4035;}
</style>
<title>Artboard 1</title>
<polygon class="st0" points="57,73.9 46.2,47.4 39,83.6 43.2,83.6 47.6,61.5 57,84.6 66.5,61.5 70.9,83.6 75.1,83.6 67.9,47.4 "/>
<polygon class="st0" points="76.6,83.6 93.3,83.6 93.3,79.5 81,79.5 81,66.9 93.3,66.9 93.3,62.7 81,62.7 81,53.4 93.3,53.4 
	93.3,49.3 76.6,49.3 "/>
<path class="st0" d="M109,65.4c2.9-1.1,4.5-3.6,4.5-7c0.1-2.9-1.2-5.6-3.5-7.4c-2.2-1.6-5-1.8-8.7-1.8h-5.7v34.4h5.7
	c5,0,8.3-0.2,10.8-2.6c1.9-1.9,2.9-4.5,2.9-7.2C114.9,69.4,112.7,66.3,109,65.4z M101.3,64.1H100v-11h1.3c5.2,0,7.6,0.8,7.6,5.7
	C108.9,62.7,106.9,64.1,101.3,64.1L101.3,64.1z M108.1,78.6c-1.4,1-3.7,1.1-6.8,1.1H100v-12h2.5c2.1,0,3.7,0.1,5.1,0.9
	c1.8,1.1,2.9,3.1,2.7,5.2C110.3,75.6,109.6,77.4,108.1,78.6L108.1,78.6z"/>
<polygon class="st0" points="135.7,53.5 143.7,53.5 143.7,83.6 148.1,83.6 148.1,53.5 156.1,53.5 156.1,49.3 135.7,49.3 "/>
<polygon class="st0" points="177,62.3 162.8,62.3 162.8,49.3 158.4,49.3 158.4,83.6 162.8,83.6 162.8,66.6 177,66.6 177,83.6 
	181.4,83.6 181.4,49.3 177,49.3 "/>
<polygon class="st0" points="184.2,83.6 198.9,83.6 198.9,79.5 188.6,79.5 188.6,66.9 198.9,66.9 198.9,62.7 188.6,62.7 188.6,53.4 
	198.9,53.4 198.9,49.3 184.2,49.3 "/>
<path class="st0" d="M211,67.4c5.5,0,8.2-2.8,8.2-8.7c0.2-2.9-1-5.8-3.3-7.7c-2.1-1.6-4.5-1.8-7.9-1.8h-6.6v34.3h4.4V67.4h0.2
	l10,16.1l0.1,0.1h5.6l-11-16.2L211,67.4z M205.9,53.1h1.2c5.2,0,7.7,0.8,7.7,5.7c0,4.5-2.4,5.3-7.7,5.3h-1.2V53.1z"/>
<path class="st0" d="M113.9,83.6h4.6l3.1-8.5h12.7l3.1,8.5h4.6l-14-36.1L113.9,83.6z M127.9,57.9l4.8,13h-9.6L127.9,57.9z"/>
<polygon class="st0" points="251.4,47.4 240.6,74 229.8,47.4 222.6,83.6 226.8,83.6 231.2,61.5 240.6,84.6 250.1,61.5 254.5,83.6 
	258.7,83.6 "/>
<path class="st0" d="M0.2,102.9H2v10.4H0.2V102.9z"/>
<path class="st0" d="M9.6,102.9h1.9l4.8,7.7l0,0v-7.7h1.8v10.4h-1.9l-4.8-7.7l0,0v7.7H9.6V102.9z"/>
<path class="st0" d="M27,109.9c0,1.6,1.2,2.2,2.6,2.2s2.2-0.8,2.2-1.6c0.1-0.6-0.3-1.1-0.9-1.3c-0.7-0.3-1.7-0.5-3.1-0.9
	c-1.3-0.2-2.3-1.3-2.3-2.7c0-2.1,1.9-3.1,3.8-3.1c2.2,0,4,1.2,4,3.3h-1.9c-0.1-1.3-1-1.8-2.3-1.8c-0.9,0-1.9,0.3-1.9,1.4
	c0,0.7,0.5,1.1,1.2,1.3c0.2,0,2.5,0.6,3,0.8c1.2,0.3,2,1.4,2,2.7c0,2.3-2.1,3.3-4.1,3.3c-2.4,0-4.3-1.1-4.4-3.7H27z"/>
<path class="st0" d="M39.7,102.9h8.4v1.6h-3.3v8.9H43v-8.9h-3.3L39.7,102.9z"/>
<path class="st0" d="M56.3,102.9h1.9l4,10.4h-2l-1-2.8h-4.1l-1,2.8h-1.9L56.3,102.9z M55.7,109.2h3.2l-1.6-4.5l0,0L55.7,109.2z"/>
<path class="st0" d="M68.8,102.9h1.8v8.9h5.3v1.6h-7.1V102.9z"/>
<path class="st0" d="M82.7,102.9h1.8v8.9h5.3v1.6h-7.1V102.9z"/>
<path class="st0" d="M99.4,102.9h1.9l4,10.4h-2l-1-2.8h-4.1l-1,2.8h-1.9L99.4,102.9z M98.7,109.2h3.2l-1.6-4.5l0,0L98.7,109.2z"/>
<path class="st0" d="M109.5,102.9h8.4v1.6h-3.3v8.9h-1.8v-8.9h-3.3L109.5,102.9z"/>
<path class="st0" d="M124.7,102.9h1.8v10.4h-1.8V102.9z"/>
<path class="st0" d="M134.2,102.9h7.5v1.6H136v2.7h5.3v1.5H136v3.1h5.8v1.6h-7.6L134.2,102.9z"/>
<path class="st0" d="M147.9,102.9h8.4v1.6H153v8.9h-1.8v-8.9h-3.3L147.9,102.9z"/>
<path class="st0" d="M163.1,102.9h7.5v1.6h-5.7v2.7h5.3v1.5h-5.3v3.1h5.8v1.6h-7.6V102.9z"/>
<path class="st0" d="M184.8,106.2c-0.2-1.3-1.3-2.2-2.6-2.1c-2.2,0-3.2,2-3.2,4s0.9,4,3.2,4c1.5,0,2.7-1.2,2.7-2.7c0,0,0,0,0,0h1.8
	c0,2.4-1.9,4.3-4.3,4.2c0,0-0.1,0-0.1,0c-3.1,0-5-2.5-5-5.5s1.9-5.5,5-5.5c2.4,0,4.2,1.3,4.4,3.6L184.8,106.2z"/>
<path class="st0" d="M193.8,102.9h1.8v4.2h4.8v-4.2h1.8v10.4h-1.8v-4.7h-4.8v4.7h-1.8V102.9z"/>
<path class="st0" d="M209.8,102.9h1.9l4.8,7.7l0,0v-7.7h1.7v10.4h-1.9l-4.8-7.7l0,0v7.7h-1.7L209.8,102.9z"/>
<path class="st0" d="M225.9,102.9h1.8v10.4h-1.8V102.9z"/>
<path class="st0" d="M235.5,102.9h7.5v1.6h-5.7v2.7h5.3v1.5h-5.3v3.1h5.8v1.6h-7.6L235.5,102.9z"/>
<path class="st0" d="M250.2,102.9h1.8v4.8l4.6-4.8h2.3l-4.2,4.2l4.5,6.3h-2.3l-3.4-5l-1.5,1.5v3.5h-1.8L250.2,102.9z"/>
<polygon class="st1" points="29.7,91.2 31.6,81.9 38.7,46.5 43.2,23.8 48.9,37.9 57,57.8 65.2,37.9 70.9,23.8 74.5,41.7 103.4,41.7 
	97.4,11.9 95,0 19.1,0 16.7,11.9 0,95.3 269.7,95.3 259,91.2 "/>
</svg>
