<?xml version="1.0" encoding="utf-8"?>
<!-- Generator: Adobe Illustrator 24.2.0, SVG Export Plug-In . SVG Version: 6.00 Build 0)  -->
<svg version="1.1" id="Laag_1" xmlns="http://www.w3.org/2000/svg" xmlns:xlink="http://www.w3.org/1999/xlink" x="0px" y="0px"
	 viewBox="0 0 240 124.5" style="enable-background:new 0 0 240 124.5;" xml:space="preserve">
<style type="text/css">
	.st0{fill:#004990;}
	.st1{fill:#808080;}
	.st2{fill:#025CA5;}
	.st3{fill:#FFFFFF;}
	.st4{fill:#20286D;}
</style>
<g>
	<polyline class="st0" points="239.9,36.5 151,36.5 114,12.2 85.3,12.2 67.3,0 0,67.9 4.2,67.9 67.7,3.9 140.6,53 240,53 240,50 
		227.2,50 239.9,36.5 	"/>
	<polyline class="st1" points="227.2,50 239.9,36.5 151,36.5 114,12.2 85.3,12.2 141.6,50 227.2,50 	"/>
	<polyline points="27,69.9 26.9,61.3 25.1,69.9 22.9,69.9 25.1,59.3 28.3,59.3 28.6,67.5 32.3,59.3 35.5,59.3 33.2,69.9 31,69.9 
		32.9,61.3 29.1,69.9 27,69.9 	"/>
	<path d="M39.5,69.9c-0.1-0.2-0.1-0.5-0.1-0.8c-0.9,0.7-1.6,1.1-2.8,1.1c-1.6,0-2.2-0.9-1.8-2.4c0.3-1.1,0.9-2.2,2.8-2.5
		c0.8,0,1.6-0.2,2.1-0.4c0.4-0.1,0.6-0.5,0.7-0.9c0.1-0.5-0.3-0.7-1.2-0.7c-1.2,0-1.5,0.7-1.6,1.3h-1.9c0.6-2.5,2.8-2.7,3.8-2.7
		c0.8,0,1.4,0.1,1.8,0.3c0.7,0.3,1.2,1,0.9,2.2l-0.9,4.3c-0.1,0.3,0,0.7,0.3,0.9l-0.1,0.3H39.5z M40.1,66.2c-0.7,0.3-1.4,0.3-2,0.4
		c-0.6,0.1-1.2,0.6-1.2,1.3c0,0.5,0.3,0.8,1.2,0.7c1.2-0.2,1.6-1,1.8-1.9L40.1,66.2"/>
	<polyline points="47.3,59.3 46,65.1 46.1,65.1 49.3,62 51.6,62 48.3,65 50.1,69.9 47.7,69.9 46.6,66.5 45.5,67.5 45,69.9 43,69.9 
		45.2,59.3 47.3,59.3 	"/>
	<path d="M53.3,66.6c-0.1,0.4-0.2,0.9,0,1.3c0.3,0.6,1,0.8,1.6,0.7c0.6-0.1,1.2-0.5,1.4-0.9h2c-0.7,1.5-2.8,2.6-4.1,2.6
		c-0.8,0-1.4-0.2-1.9-0.6c-0.6-0.5-1-1.2-1-1.9c0-0.1,0-0.5,0.1-1c0.1-0.5,0.2-1.1,0.4-1.7c1.2-3.1,3.3-3.2,4.2-3.2
		c1.5,0,2.3,0.8,2.7,1.6c0.5,1.1,0.2,2.2,0,3.2H53.3z M56.7,65.3c0.1-0.6,0.1-1.6-1.1-1.6c-1.2-0.1-1.9,0.9-2,1.6H56.7"/>
	<polyline points="63.6,59.3 61.3,69.9 59.3,69.9 61.5,59.3 63.6,59.3 	"/>
	<path d="M67.8,69.9c-0.1-0.2-0.1-0.5-0.1-0.8c-0.9,0.7-1.6,1.1-2.8,1.1c-1.6,0-2.2-0.9-1.8-2.4c0.3-1.1,0.9-2.2,2.8-2.5
		c0.8,0,1.6-0.2,2.1-0.4c0.4-0.1,0.6-0.5,0.7-0.9c0.1-0.5-0.3-0.7-1.2-0.7c-1.2,0-1.5,0.7-1.6,1.3h-1.9c0.6-2.5,2.8-2.7,3.8-2.7
		c0.8,0,1.4,0.1,1.8,0.3c0.7,0.3,1.2,1,0.9,2.2l-0.9,4.3c-0.1,0.3,0,0.7,0.3,0.9l-0.1,0.3H67.8z M68.4,66.2c-0.7,0.3-1.4,0.3-2,0.4
		c-0.7,0.1-1.2,0.6-1.2,1.3c0,0.5,0.3,0.8,1.2,0.7c1.2-0.2,1.6-1,1.8-1.9L68.4,66.2"/>
	<path d="M75.9,69.9c-0.1-0.2-0.1-0.5-0.1-0.8c-0.9,0.7-1.6,1.1-2.8,1.1c-1.6,0-2.2-0.9-1.8-2.4c0.3-1.1,0.9-2.2,2.8-2.5
		c0.8,0,1.6-0.2,2.1-0.4c0.4-0.1,0.6-0.5,0.7-0.9c0.1-0.5-0.3-0.7-1.2-0.7c-1.2,0-1.5,0.7-1.6,1.3h-1.9c0.6-2.5,2.8-2.7,3.8-2.7
		c0.8,0,1.4,0.1,1.8,0.3c0.7,0.3,1.2,1,0.9,2.2l-0.9,4.3c-0.1,0.3,0,0.7,0.3,0.9L78,69.9H75.9z M76.4,66.2c-0.7,0.3-1.4,0.3-2,0.4
		c-0.7,0.1-1.2,0.6-1.2,1.3c0,0.5,0.3,0.8,1.2,0.7c1.2-0.2,1.6-1,1.8-1.9L76.4,66.2"/>
	<path d="M81.1,62h2l-0.3,1.5h0c0.2-0.5,0.4-0.7,1.2-1.2c0.4-0.3,0.9-0.5,1.5-0.4L85.1,64c-0.9-0.1-2.1-0.2-2.7,1.5l-0.9,4.4h-2
		L81.1,62"/>
	<path d="M92.1,70h-2l0.2-0.8h0c-0.7,0.8-1.6,1.1-2.2,1.1c-1.4,0.1-2.1-0.5-2.5-1.8c-0.2-0.7-0.2-1.4-0.1-2.2
		c0.1-0.8,0.4-1.6,1.1-2.5c1-1.5,2.3-1.7,3.1-1.8c1.3-0.1,1.8,0.5,2,1.2h0l0.8-3.8h2L92.1,70z M88.1,64.6c-0.2,0.3-0.5,0.9-0.7,1.5
		c-0.1,0.7-0.1,1.2,0,1.5c0.2,0.7,0.7,0.9,1.2,0.9c0.5,0,1.1-0.2,1.5-0.9c0.2-0.3,0.5-0.9,0.7-1.5c0.1-0.7,0.1-1.2,0-1.5
		c-0.2-0.7-0.7-0.9-1.2-0.9C89.2,63.7,88.6,63.9,88.1,64.6"/>
	<polygon points="95.7,62 97.7,62 96,69.9 94,69.9 	"/>
	<polyline points="96.3,59.3 98.3,59.3 97.9,61.1 95.9,61.1 96.3,59.3 	"/>
	<polygon points="100.3,59.3 102.4,59.3 102,61.1 99.9,61.1 	"/>
	<path d="M99.8,62h2l-2,9.3c-0.2,0.7-0.8,1.5-1.5,1.6c-0.6,0.1-1.2,0.1-1.8,0.1l0.4-1.7c0.4,0,0.9,0.1,1.1-0.6L99.8,62"/>
	<polyline points="116.1,59.3 115.7,61.1 112.6,61.1 110.7,69.9 108.6,69.9 110.4,61.1 107.2,61.1 107.6,59.3 116.1,59.3 	"/>
	<path d="M117.2,59.3h2l-0.8,3.8h0c0.5-0.7,1.4-1.2,2.2-1.2c1.8,0,2.9,0.8,2.4,2.7l-1.1,5.3h-2l1-4.7c0.1-0.7,0.2-1.5-1.1-1.5
		c-1.2,0-1.6,0.7-1.8,1.3l-1,4.9h-2L117.2,59.3"/>
	<polyline points="124.3,67.8 126.5,67.8 126,69.9 123.8,69.9 124.3,67.8 	"/>
	<polyline points="135,62 135.4,67.8 138.3,62 140.4,62 136,69.9 133.9,69.9 132.9,62 135,62 	"/>
	<path d="M144.5,69.9c-0.1-0.2-0.1-0.5-0.1-0.8c-0.9,0.7-1.6,1.1-2.8,1.1c-1.6,0-2.2-0.9-1.8-2.4c0.3-1.1,0.9-2.2,2.8-2.5
		c0.8,0,1.6-0.2,2.1-0.4c0.4-0.1,0.6-0.5,0.7-0.9c0.1-0.5-0.3-0.7-1.2-0.7c-1.2,0-1.5,0.7-1.6,1.3h-1.9c0.6-2.5,2.8-2.7,3.8-2.7
		c0.8,0,1.4,0.1,1.8,0.3c0.7,0.3,1.2,1,0.9,2.2l-0.9,4.3c-0.1,0.3,0,0.7,0.3,0.9l-0.1,0.3H144.5z M145.1,66.2
		c-0.7,0.3-1.4,0.3-2,0.4c-0.7,0.1-1.2,0.6-1.2,1.3c0,0.5,0.3,0.8,1.2,0.7c1.2-0.2,1.6-1,1.8-1.9L145.1,66.2"/>
	<path d="M149.8,62h2l-0.3,1.2h0c0.6-0.8,1.4-1.3,2.2-1.3c1.8,0,2.9,0.8,2.4,2.7l-1.1,5.3h-2l1-4.7c0.2-0.7,0.2-1.5-1.1-1.5
		c-1.2,0-1.6,0.7-1.8,1.3l-1,4.9h-2L149.8,62"/>
	<path d="M168,70h-2l0.2-0.8h0c-0.7,0.8-1.6,1.1-2.2,1.1c-1.4,0.1-2.1-0.5-2.5-1.8c-0.2-0.7-0.2-1.4-0.1-2.2c0.1-0.8,0.4-1.6,1-2.5
		c1-1.5,2.3-1.7,3.1-1.8c1.3-0.1,1.8,0.5,2,1.2h0l0.8-3.8h2L168,70z M164,64.6c-0.2,0.3-0.5,0.9-0.7,1.5c-0.1,0.7-0.1,1.2,0,1.5
		c0.2,0.7,0.7,0.9,1.2,0.9c0.5,0,1.1-0.2,1.5-0.9c0.2-0.3,0.5-0.9,0.7-1.5c0.1-0.7,0.1-1.2,0-1.5c-0.2-0.7-0.7-0.9-1.2-0.9
		C165.1,63.7,164.5,63.9,164,64.6"/>
	<path d="M172,66.6c-0.1,0.4-0.2,0.9,0,1.3c0.3,0.6,1,0.8,1.6,0.7c0.6-0.1,1.2-0.5,1.4-0.9h2c-0.7,1.5-2.8,2.6-4.1,2.6
		c-0.8,0-1.4-0.2-1.9-0.6c-0.6-0.5-1-1.2-1-1.9c0-0.1,0-0.5,0.1-1c0.1-0.5,0.2-1.1,0.4-1.7c1.2-3.1,3.3-3.2,4.2-3.2
		c1.5,0,2.3,0.8,2.7,1.6c0.5,1.1,0.2,2.2,0,3.2H172z M175.4,65.3c0.1-0.6,0.1-1.6-1.1-1.6c-1.2-0.1-1.9,0.9-2,1.6H175.4"/>
	<path d="M179.6,62h2l-0.3,1.5h0c0.2-0.5,0.4-0.7,1.2-1.2c0.4-0.3,0.9-0.5,1.5-0.4l-0.4,2.1c-0.9-0.1-2.1-0.2-2.7,1.5l-0.9,4.4h-2
		L179.6,62"/>
	<polyline points="192.3,59.3 190.5,68.1 195.5,68.1 195.1,69.9 187.9,69.9 190.1,59.3 192.3,59.3 	"/>
	<path d="M201.1,69.9c-0.1-0.2-0.1-0.5-0.1-0.8c-0.9,0.7-1.6,1.1-2.8,1.1c-1.6,0-2.2-0.9-1.8-2.4c0.3-1.1,0.9-2.2,2.8-2.5
		c0.8,0,1.6-0.2,2.1-0.4c0.4-0.1,0.6-0.5,0.7-0.9c0.1-0.5-0.3-0.7-1.2-0.7c-1.2,0-1.5,0.7-1.6,1.3h-1.9c0.6-2.5,2.8-2.7,3.8-2.7
		c0.8,0,1.4,0.1,1.8,0.3c0.7,0.3,1.2,1,0.9,2.2l-0.9,4.3c-0.1,0.3,0,0.7,0.3,0.9l-0.1,0.3H201.1z M201.6,66.2
		c-0.7,0.3-1.4,0.3-2,0.4c-0.6,0.1-1.2,0.6-1.2,1.3c0,0.5,0.3,0.8,1.2,0.7c1.2-0.2,1.6-1,1.8-1.9L201.6,66.2"/>
	<path d="M209.1,69.9c-0.1-0.2-0.1-0.5-0.1-0.8c-0.9,0.7-1.6,1.1-2.8,1.1c-1.6,0-2.2-0.9-1.8-2.4c0.3-1.1,0.9-2.2,2.8-2.5
		c0.8,0,1.6-0.2,2.1-0.4c0.4-0.1,0.6-0.5,0.7-0.9c0.1-0.5-0.3-0.7-1.2-0.7c-1.2,0-1.5,0.7-1.6,1.3h-1.9c0.6-2.5,2.8-2.7,3.8-2.7
		c0.8,0,1.4,0.1,1.8,0.3c0.7,0.3,1.2,1,0.9,2.2l-0.9,4.3c-0.1,0.3,0,0.7,0.3,0.9l-0.1,0.3H209.1z M209.7,66.2
		c-0.7,0.3-1.4,0.3-2,0.4c-0.7,0.1-1.2,0.6-1.2,1.3c0,0.5,0.3,0.8,1.2,0.7c1.2-0.2,1.6-1,1.8-1.9L209.7,66.2"/>
	<path d="M214.4,62h2l-0.3,1.2h0c0.6-0.8,1.4-1.3,2.2-1.3c1.8,0,2.9,0.8,2.4,2.7l-1.1,5.3h-2l1-4.7c0.2-0.7,0.2-1.5-1.1-1.5
		c-1.2,0-1.6,0.7-1.8,1.3l-1,4.9h-2L214.4,62"/>
	<path class="st2" d="M20.6,73.8h1.5l1.3,5.4h0l1.2-5.4h1.9l1.2,5.4h0l1.3-5.4h1.4l-1.8,6.7h-1.8l-1.3-5.4h0l-1.2,5.4h-1.8
		L20.6,73.8z"/>
	<path class="st2" d="M30.7,73.8h1.5l1.3,5.4h0l1.2-5.4h1.9l1.2,5.4h0l1.3-5.4h1.4l-1.8,6.7h-1.8l-1.3-5.4h0l-1.2,5.4h-1.8
		L30.7,73.8z"/>
	<path class="st2" d="M40.8,73.8h1.5l1.3,5.4h0l1.2-5.4h1.9l1.2,5.4h0l1.3-5.4h1.4l-1.8,6.7H47l-1.3-5.4h0l-1.2,5.4h-1.8L40.8,73.8z
		"/>
	<path class="st2" d="M51.4,79.2h1.4v1.4h-1.4V79.2z"/>
	<path class="st2" d="M54.4,73.8h2.3l1.7,5.1h0l1.7-5.1h2.3v6.7h-1.3V75h0L59,80.6h-1.3L55.7,75l0,0v5.5h-1.3L54.4,73.8L54.4,73.8z"
		/>
	<path class="st2" d="M65.9,73.8h1.6l2.8,6.7h-1.6L68.1,79h-2.8l-0.6,1.5h-1.5L65.9,73.8z M66.6,75.2L66.6,75.2l-1,2.8h2.1
		L66.6,75.2z"/>
	<path class="st2" d="M71.1,73.8h1.4v2.9l2.5-2.9h1.7L73.9,77l3,3.6h-1.8l-2.5-3.1h0v3.1h-1.4L71.1,73.8L71.1,73.8z"/>
	<path class="st2" d="M77.9,73.8H82v1.1h-2.7v1.7h2.5v1.1h-2.5v1.9H82v1.1h-4.2C77.9,80.6,77.9,73.8,77.9,73.8z"/>
	<path class="st2" d="M83.5,73.8h1.4v5.7h2.7v1.1h-4.1C83.5,80.6,83.5,73.8,83.5,73.8z"/>
	<path class="st2" d="M90.5,73.8h1.6l2.8,6.7h-1.6L92.7,79h-2.8l-0.6,1.5h-1.5L90.5,73.8z M91.3,75.2L91.3,75.2l-1,2.8h2.1
		L91.3,75.2z"/>
	<path class="st2" d="M97.8,73.8h1.6l2.8,6.7h-1.6L100,79h-2.8l-0.6,1.5H95L97.8,73.8z M98.6,75.2L98.6,75.2l-1,2.8h2.1L98.6,75.2z"
		/>
	<path class="st2" d="M102.9,73.8h1.5c1.5,0,3.3,0,3.3,1.8c0,0.8-0.6,1.4-1.4,1.6v0c0.4,0,0.6,0.4,0.7,0.7l1.1,2.6h-1.6l-0.8-2.1
		c-0.2-0.5-0.4-0.7-1-0.7h-0.5v2.8h-1.4V73.8z M104.3,76.7h0.5c0.7,0,1.5-0.1,1.5-0.9c0-0.8-0.8-0.9-1.5-0.9h-0.5V76.7z"/>
	<path class="st2" d="M109.2,73.8h1.9c2.2,0,4.1,0.7,4.1,3.4c0,2.7-1.9,3.4-4.1,3.4h-1.9V73.8z M110.6,79.5h0.8
		c1.2,0,2.3-0.8,2.3-2.3c0-1.5-1.1-2.3-2.3-2.3h-0.8V79.5z"/>
	<path class="st2" d="M116.4,73.8h1.4v6.7h-1.4V73.8z"/>
	<path class="st2" d="M118.7,79.4c0.2,0.1,0.4,0.1,0.7,0.1c0.9,0,0.9-0.7,0.9-1.2v-4.5h1.4V79c0,0.7-0.5,1.7-1.9,1.7
		c-0.4,0-0.7,0-1.1-0.1L118.7,79.4L118.7,79.4z"/>
	<path class="st2" d="M122.5,73.8h1.5l1.8,5.3h0l1.8-5.3h1.4l-2.4,6.7h-1.7L122.5,73.8z"/>
	<path class="st2" d="M131.9,73.8h1.6l2.8,6.7h-1.6l-0.6-1.5h-2.8l-0.6,1.5h-1.5L131.9,73.8z M132.7,75.2L132.7,75.2l-1,2.8h2.1
		L132.7,75.2z"/>
	<path class="st2" d="M137.1,73.8h1.7l2.7,5h0v-5h1.3v6.7h-1.7l-2.7-5h0v5h-1.3L137.1,73.8L137.1,73.8z"/>
	<path class="st2" d="M144.5,73.8h1.9c2.2,0,4.1,0.7,4.1,3.4c0,2.7-1.9,3.4-4.1,3.4h-1.9V73.8z M145.9,79.5h0.8
		c1.2,0,2.3-0.8,2.3-2.3c0-1.5-1.1-2.3-2.3-2.3h-0.8V79.5z"/>
	<path class="st2" d="M151.7,73.8h4.1v1.1h-2.7v1.7h2.5v1.1h-2.5v1.9h2.8v1.1h-4.2C151.7,80.6,151.7,73.8,151.7,73.8z"/>
	<path class="st2" d="M157.2,73.8h1.5c1.5,0,3.3,0,3.3,1.8c0,0.8-0.6,1.4-1.4,1.6v0c0.4,0,0.6,0.4,0.7,0.7l1.1,2.6h-1.6l-0.8-2.1
		c-0.2-0.5-0.4-0.7-1-0.7h-0.5v2.8h-1.4V73.8z M158.6,76.7h0.5c0.7,0,1.5-0.1,1.5-0.9c0-0.8-0.8-0.9-1.5-0.9h-0.5V76.7z"/>
	<path class="st2" d="M163.5,73.8h1.4v5.7h2.7v1.1h-4.1V73.8z"/>
	<path class="st2" d="M170.5,73.8h1.6l2.8,6.7h-1.6l-0.6-1.5h-2.8l-0.6,1.5h-1.5L170.5,73.8z M171.3,75.2L171.3,75.2l-1,2.8h2.1
		L171.3,75.2z"/>
	<path class="st2" d="M177.8,73.8h1.6l2.8,6.7h-1.6L180,79h-2.8l-0.6,1.5h-1.5L177.8,73.8z M178.6,75.2L178.6,75.2l-1,2.8h2.1
		L178.6,75.2z"/>
	<path class="st2" d="M183,73.8h1.7l2.7,5h0v-5h1.3v6.7H187l-2.7-5h0v5H183L183,73.8L183,73.8z"/>
	<path class="st2" d="M190.2,79.2h1.4v1.4h-1.4V79.2z"/>
	<path class="st2" d="M193.1,73.8h1.7l2.7,5h0v-5h1.3v6.7h-1.7l-2.7-5h0v5h-1.3L193.1,73.8L193.1,73.8z"/>
	<path class="st2" d="M200.4,73.8h1.4v5.7h2.7v1.1h-4.1V73.8z"/>
</g>
<g id="Logo">
	<path class="st3" d="M62.5,90.5L62,90.2l-0.4,0.2l-13.9,8.1l-0.4,0.3v17.1l0.4,0.2l13.9,8.1l0.4,0.2l0.4-0.2l13.9-8.1l0.4-0.2V98.8
		l-0.4-0.2L62.5,90.5z"/>
	<path class="st4" d="M62.5,90.5L62,90.2l-0.4,0.2l-13.9,8.1l-0.4,0.3v17.1l0.4,0.2l13.9,8.1l0.4,0.2l0.4-0.2l13.9-8.1l0.4-0.2V98.8
		l-0.4-0.2L62.5,90.5z M48.1,115.4V99.3L62,91.3v7.6l8.7,5v1.8l-1.7-1v8.4h-7v10.5L48.1,115.4z"/>
	<polygon class="st4" points="88.1,109.5 85.6,101.8 82,101.8 86.3,113 89.8,113 94.1,101.8 90.7,101.8 	"/>
	<path class="st4" d="M103.2,107c0.6-0.2,1.1-0.5,1.4-0.9c0.3-0.4,0.5-0.9,0.5-1.5c0-0.6-0.2-1.1-0.5-1.5c-0.3-0.4-0.9-0.7-1.5-1
		c-0.6-0.2-1.4-0.3-2.3-0.3h-5.5V113h5.8c0.9,0,1.7-0.1,2.3-0.4s1.2-0.6,1.6-1.1c0.4-0.5,0.5-1,0.5-1.7c0-0.7-0.2-1.3-0.6-1.8
		C104.5,107.5,103.9,107.2,103.2,107z M98.6,104.2h2c0.3,0,0.6,0.1,0.8,0.2c0.2,0.2,0.3,0.4,0.3,0.7c0,0.3-0.1,0.5-0.3,0.7
		c-0.2,0.2-0.5,0.3-0.8,0.3h-2V104.2z M101.7,110.2c-0.2,0.2-0.6,0.3-1,0.3h-2v-2h2c0.4,0,0.8,0.1,1,0.2c0.2,0.2,0.4,0.4,0.4,0.7
		C102,109.8,101.9,110,101.7,110.2z"/>
	<path class="st4" d="M115.8,102.3c-0.9-0.5-2-0.7-3.1-0.7c-1.2,0-2.2,0.2-3.2,0.7c-0.9,0.5-1.7,1.2-2.2,2.1s-0.8,1.9-0.8,3
		c0,1.1,0.3,2.1,0.8,3c0.5,0.9,1.3,1.6,2.2,2.1c0.9,0.5,2,0.8,3.2,0.8c1.2,0,2.2-0.3,3.1-0.8c0.9-0.5,1.7-1.2,2.2-2.1
		c0.5-0.9,0.8-1.9,0.8-3c0-1.1-0.3-2.1-0.8-3C117.5,103.5,116.8,102.8,115.8,102.3z M115.1,108.9c-0.2,0.5-0.6,0.8-1,1.1
		s-0.9,0.4-1.3,0.4s-0.9-0.1-1.4-0.4c-0.4-0.3-0.8-0.6-1-1.1c-0.2-0.5-0.4-1-0.4-1.6c0-0.6,0.1-1.1,0.4-1.6c0.2-0.5,0.6-0.8,1-1.1
		c0.4-0.3,0.9-0.4,1.4-0.4s0.9,0.1,1.3,0.4c0.4,0.3,0.7,0.6,1,1.1c0.2,0.5,0.3,1,0.3,1.6C115.4,107.9,115.3,108.5,115.1,108.9z"/>
	<polygon class="st4" points="53.3,105.6 55.1,104.6 55.1,113 62,113 62,98.8 53.3,103.9 	"/>
	<g>
		<polygon class="st4" points="126,105.9 127.7,101.8 127.1,101.8 125.7,105.3 124.3,101.8 123.7,101.8 125.4,105.9 		"/>
		<path class="st4" d="M128.5,105.7c0.2,0.1,0.5,0.2,0.8,0.2c0.6,0,1-0.2,1.3-0.6l-0.3-0.3c-0.3,0.3-0.6,0.5-1,0.5
			c-0.2,0-0.4-0.1-0.6-0.2c-0.2-0.1-0.3-0.3-0.4-0.5l2.4-0.8c0-0.4-0.2-0.7-0.4-0.9c-0.2-0.2-0.6-0.3-1-0.3c-0.3,0-0.6,0.1-0.8,0.2
			s-0.4,0.3-0.6,0.6c-0.1,0.2-0.2,0.5-0.2,0.8c0,0.3,0.1,0.6,0.2,0.8C128,105.4,128.2,105.6,128.5,105.7z M128.2,104.3
			c0-0.3,0.1-0.6,0.3-0.8c0.2-0.2,0.4-0.3,0.7-0.3c0.4,0,0.7,0.2,0.9,0.6L128.2,104.3L128.2,104.3L128.2,104.3z"/>
		<path class="st4" d="M132,104.2c0-0.3,0.1-0.5,0.3-0.7s0.5-0.3,0.8-0.2v-0.5c-0.3,0-0.5,0.1-0.7,0.2c-0.2,0.1-0.3,0.3-0.4,0.5
			v-0.7h-0.6v3.2h0.6V104.2z"/>
		<path class="st4" d="M136.4,105.3L136,105c-0.3,0.3-0.6,0.5-1,0.5c-0.2,0-0.4-0.1-0.6-0.2c-0.2-0.1-0.3-0.3-0.4-0.5l2.4-0.8
			c0-0.4-0.2-0.7-0.4-0.9c-0.3-0.2-0.6-0.3-1-0.3c-0.3,0-0.6,0.1-0.8,0.2c-0.2,0.1-0.4,0.3-0.6,0.6c-0.1,0.2-0.2,0.5-0.2,0.8
			c0,0.3,0.1,0.6,0.2,0.8c0.1,0.2,0.3,0.4,0.6,0.6c0.2,0.1,0.5,0.2,0.8,0.2C135.6,105.9,136,105.7,136.4,105.3z M134,104.3
			c0-0.3,0.1-0.6,0.3-0.8c0.2-0.2,0.4-0.3,0.7-0.3c0.4,0,0.7,0.2,0.9,0.6L134,104.3L134,104.3z"/>
		<path class="st4" d="M137.7,104.2c0-0.3,0.1-0.5,0.3-0.7c0.2-0.2,0.4-0.3,0.7-0.3c0.3,0,0.5,0.1,0.6,0.2c0.2,0.1,0.2,0.3,0.2,0.6
			v1.8h0.6v-2c0-0.4-0.1-0.7-0.3-0.9c-0.2-0.2-0.5-0.3-0.9-0.3c-0.6,0-1,0.2-1.2,0.7v-0.7h-0.6v3.2h0.6L137.7,104.2L137.7,104.2z"/>
		<rect x="141" y="102.8" class="st4" width="0.6" height="3.2"/>
		<path class="st4" d="M141.3,102.2c0.1,0,0.2,0,0.2-0.1c0.1-0.1,0.1-0.2,0.1-0.3c0-0.1,0-0.2-0.1-0.3c-0.1-0.1-0.2-0.1-0.2-0.1
			c-0.1,0-0.2,0-0.2,0.1c-0.1,0.1-0.1,0.2-0.1,0.3c0,0.1,0,0.2,0.1,0.3C141.1,102.2,141.2,102.2,141.3,102.2z"/>
		<path class="st4" d="M144.6,106.3c-0.2,0.2-0.5,0.3-0.8,0.3c-0.2,0-0.4,0-0.5-0.1c-0.2-0.1-0.3-0.2-0.5-0.3l-0.2,0.4
			c0.4,0.3,0.8,0.4,1.3,0.4c0.3,0,0.6-0.1,0.9-0.2c0.2-0.1,0.4-0.3,0.6-0.5c0.1-0.2,0.2-0.5,0.2-0.8v-2.8h-0.6v0.6
			c-0.1-0.2-0.3-0.3-0.5-0.4c-0.2-0.1-0.4-0.2-0.7-0.2c-0.3,0-0.5,0.1-0.7,0.2c-0.2,0.1-0.4,0.3-0.5,0.5c-0.1,0.2-0.2,0.5-0.2,0.8
			c0,0.3,0.1,0.6,0.2,0.8c0.1,0.2,0.3,0.4,0.5,0.5c0.2,0.1,0.5,0.2,0.7,0.2c0.2,0,0.5-0.1,0.7-0.2c0.2-0.1,0.3-0.3,0.5-0.4v0.4
			C144.8,105.9,144.7,106.2,144.6,106.3z M144.7,104.8c-0.1,0.2-0.2,0.3-0.3,0.4c-0.2,0.1-0.3,0.1-0.5,0.1c-0.3,0-0.5-0.1-0.7-0.3
			c-0.2-0.2-0.3-0.5-0.3-0.8c0-0.2,0.1-0.4,0.1-0.6c0.1-0.2,0.2-0.3,0.4-0.4c0.2-0.1,0.3-0.1,0.5-0.1c0.2,0,0.4,0.1,0.5,0.1
			c0.2,0.1,0.3,0.2,0.3,0.4c0.1,0.2,0.1,0.3,0.1,0.6C144.8,104.5,144.8,104.6,144.7,104.8z"/>
		<rect x="146.4" y="102.8" class="st4" width="0.6" height="3.2"/>
		<path class="st4" d="M146.6,102.2c0.1,0,0.2,0,0.2-0.1c0.1-0.1,0.1-0.2,0.1-0.3c0-0.1,0-0.2-0.1-0.3c-0.1-0.1-0.1-0.1-0.2-0.1
			s-0.2,0-0.2,0.1c-0.1,0.1-0.1,0.2-0.1,0.3c0,0.1,0,0.2,0.1,0.3C146.5,102.2,146.5,102.2,146.6,102.2z"/>
		<path class="st4" d="M150.8,105.9V104c0-0.4-0.1-0.7-0.3-0.9c-0.2-0.2-0.5-0.3-0.9-0.3c-0.6,0-1,0.2-1.2,0.7v-0.7h-0.6v3.2h0.6
			v-1.7c0-0.3,0.1-0.5,0.3-0.7c0.2-0.2,0.4-0.3,0.7-0.3c0.3,0,0.5,0.1,0.6,0.2c0.2,0.1,0.2,0.3,0.2,0.6v1.8L150.8,105.9L150.8,105.9
			z"/>
		<path class="st4" d="M152.2,105.6c0.2,0.1,0.5,0.2,0.7,0.2c0.2,0,0.5-0.1,0.7-0.2c0.2-0.1,0.3-0.3,0.5-0.4v0.4
			c0,0.3-0.1,0.6-0.3,0.7c-0.2,0.2-0.5,0.3-0.8,0.3c-0.2,0-0.4,0-0.5-0.1c-0.2-0.1-0.3-0.2-0.5-0.3l-0.2,0.4
			c0.4,0.3,0.8,0.4,1.3,0.4c0.3,0,0.6-0.1,0.8-0.2c0.2-0.1,0.4-0.3,0.6-0.5c0.1-0.2,0.2-0.5,0.2-0.8v-2.8H154v0.6
			c-0.1-0.2-0.3-0.3-0.5-0.4c-0.2-0.1-0.4-0.2-0.7-0.2c-0.3,0-0.5,0.1-0.7,0.2c-0.2,0.1-0.4,0.3-0.5,0.5c-0.1,0.2-0.2,0.5-0.2,0.8
			c0,0.3,0.1,0.6,0.2,0.8C151.8,105.3,151.9,105.4,152.2,105.6z M152.1,103.7c0.1-0.2,0.2-0.3,0.4-0.4c0.2-0.1,0.3-0.1,0.5-0.1
			s0.4,0.1,0.5,0.1c0.2,0.1,0.3,0.2,0.3,0.4s0.1,0.3,0.1,0.6c0,0.2-0.1,0.4-0.1,0.5c-0.1,0.2-0.2,0.3-0.3,0.4
			c-0.2,0.1-0.3,0.1-0.5,0.1c-0.3,0-0.5-0.1-0.7-0.3c-0.2-0.2-0.3-0.5-0.3-0.8C152,104.1,152,103.9,152.1,103.7z"/>
		<polygon class="st4" points="158.7,105.9 159.9,102.8 159.3,102.8 158.4,105.4 157.4,102.8 156.8,102.8 158.1,105.9 		"/>
		<path class="st4" d="M162.3,105.8c0.2-0.1,0.3-0.3,0.5-0.5v0.6h0.6v-3.2h-0.6v0.6c-0.1-0.2-0.3-0.4-0.5-0.5
			c-0.2-0.1-0.4-0.2-0.7-0.2c-0.3,0-0.6,0.1-0.8,0.2c-0.2,0.1-0.4,0.3-0.5,0.6c-0.1,0.2-0.2,0.5-0.2,0.8c0,0.3,0.1,0.6,0.2,0.8
			c0.1,0.2,0.3,0.4,0.5,0.6c0.2,0.1,0.5,0.2,0.8,0.2C161.9,105.9,162.1,105.9,162.3,105.8z M160.8,104.9c-0.1-0.2-0.1-0.4-0.1-0.6
			s0.1-0.4,0.1-0.6c0.1-0.2,0.2-0.3,0.4-0.4c0.2-0.1,0.3-0.1,0.6-0.1c0.3,0,0.5,0.1,0.7,0.3s0.3,0.4,0.3,0.7v0.2
			c0,0.3-0.1,0.5-0.3,0.7c-0.2,0.2-0.4,0.3-0.7,0.3c-0.2,0-0.4-0.1-0.6-0.1C161,105.2,160.9,105.1,160.8,104.9z"/>
		<path class="st4" d="M166.6,105.9h0.6V104c0-0.4-0.1-0.7-0.3-0.9c-0.2-0.2-0.5-0.3-0.9-0.3c-0.6,0-1,0.2-1.2,0.7v-0.7h-0.6v3.2
			h0.6v-1.7c0-0.3,0.1-0.5,0.3-0.7c0.2-0.2,0.4-0.3,0.7-0.3c0.3,0,0.5,0.1,0.6,0.2c0.1,0.1,0.2,0.3,0.2,0.6L166.6,105.9L166.6,105.9
			z"/>
		<path class="st4" d="M128.3,109.8c-0.6,0-1,0.3-1.2,0.8c-0.1-0.2-0.2-0.4-0.4-0.6c-0.2-0.1-0.4-0.2-0.7-0.2c-0.6,0-1,0.2-1.2,0.7
			v-0.7h-0.6v3.1h0.6v-1.6c0-0.3,0.1-0.6,0.3-0.8s0.4-0.3,0.7-0.3c0.3,0,0.5,0.1,0.6,0.2c0.1,0.2,0.2,0.4,0.2,0.6v1.8h0.6v-1.6
			c0-0.3,0.1-0.6,0.3-0.8s0.4-0.3,0.7-0.3c0.3,0,0.5,0.1,0.6,0.2c0.1,0.2,0.2,0.4,0.2,0.6v1.8h0.6v-2c0-0.4-0.1-0.7-0.3-0.9
			C128.9,109.9,128.6,109.8,128.3,109.8z"/>
		<path class="st4" d="M132.8,110.5c-0.1-0.2-0.3-0.4-0.5-0.5s-0.4-0.2-0.7-0.2c-0.3,0-0.6,0.1-0.8,0.2s-0.4,0.3-0.5,0.6
			c-0.1,0.2-0.2,0.5-0.2,0.8c0,0.3,0.1,0.6,0.2,0.8c0.1,0.2,0.3,0.4,0.5,0.6s0.5,0.2,0.8,0.2c0.3,0,0.5-0.1,0.7-0.2
			c0.2-0.1,0.3-0.3,0.5-0.5v0.6h0.6v-3.1h-0.6L132.8,110.5L132.8,110.5z M132.8,111.5c0,0.3-0.1,0.5-0.3,0.7
			c-0.2,0.2-0.4,0.3-0.7,0.3c-0.2,0-0.4-0.1-0.6-0.1c-0.2-0.1-0.3-0.2-0.4-0.4c-0.1-0.2-0.1-0.4-0.1-0.6s0.1-0.4,0.1-0.6
			c0.1-0.2,0.2-0.3,0.4-0.4c0.2-0.1,0.3-0.1,0.6-0.1c0.3,0,0.5,0.1,0.7,0.3c0.2,0.2,0.3,0.4,0.3,0.7V111.5z"/>
		<polygon class="st4" points="137,109.9 136.4,109.9 134.9,111.4 134.9,108.6 134.3,108.6 134.3,113 134.9,113 134.9,112.1 
			135.5,111.5 136.5,113 137.1,113 135.9,111.1 		"/>
		<path class="st4" d="M139.9,110.2c-0.3-0.2-0.6-0.3-1-0.3c-0.3,0-0.6,0.1-0.8,0.2c-0.2,0.1-0.4,0.3-0.6,0.6
			c-0.1,0.2-0.2,0.5-0.2,0.8c0,0.3,0.1,0.6,0.2,0.8c0.1,0.2,0.3,0.4,0.6,0.6c0.2,0.1,0.5,0.2,0.8,0.2c0.6,0,1-0.2,1.3-0.6l-0.3-0.3
			c-0.3,0.3-0.6,0.5-1,0.5c-0.2,0-0.4-0.1-0.6-0.2s-0.3-0.3-0.4-0.5l2.4-0.8C140.3,110.7,140.2,110.4,139.9,110.2z M137.9,111.5
			L137.9,111.5c0-0.4,0.1-0.7,0.3-0.9c0.2-0.2,0.4-0.3,0.7-0.3c0.4,0,0.7,0.2,0.9,0.6L137.9,111.5z"/>
		<path class="st4" d="M141.9,112.5c-0.2,0-0.3-0.1-0.3-0.4v-3.5h-0.6v3.6c0,0.3,0.1,0.5,0.2,0.6c0.1,0.1,0.3,0.2,0.5,0.2
			c0.2,0,0.4-0.1,0.6-0.2l-0.1-0.5C142.1,112.5,142,112.5,141.9,112.5z"/>
		<path class="st4" d="M145.3,110.5c-0.1-0.2-0.3-0.4-0.5-0.5c-0.2-0.1-0.4-0.2-0.7-0.2c-0.3,0-0.6,0.1-0.8,0.2
			c-0.2,0.1-0.4,0.3-0.5,0.6c-0.1,0.2-0.2,0.5-0.2,0.8c0,0.3,0.1,0.6,0.2,0.8c0.1,0.2,0.3,0.4,0.5,0.6c0.2,0.1,0.5,0.2,0.8,0.2
			c0.3,0,0.5-0.1,0.7-0.2c0.2-0.1,0.4-0.3,0.5-0.5v0.6h0.6v-3.1h-0.6V110.5z M145.3,111.5c0,0.3-0.1,0.5-0.3,0.7
			c-0.2,0.2-0.4,0.3-0.7,0.3c-0.2,0-0.4-0.1-0.5-0.1c-0.2-0.1-0.3-0.2-0.4-0.4c-0.1-0.2-0.1-0.4-0.1-0.6s0.1-0.4,0.1-0.6
			c0.1-0.2,0.2-0.3,0.4-0.4c0.2-0.1,0.3-0.1,0.5-0.1c0.3,0,0.5,0.1,0.7,0.3c0.2,0.2,0.3,0.4,0.3,0.7V111.5z"/>
		<path class="st4" d="M149.2,110.5c-0.1-0.2-0.3-0.4-0.5-0.5c-0.2-0.1-0.4-0.2-0.7-0.2c-0.3,0-0.6,0.1-0.8,0.2
			c-0.2,0.1-0.4,0.3-0.5,0.6c-0.1,0.2-0.2,0.5-0.2,0.8c0,0.3,0.1,0.6,0.2,0.8c0.1,0.2,0.3,0.4,0.5,0.6c0.2,0.1,0.5,0.2,0.8,0.2
			c0.3,0,0.5-0.1,0.7-0.2c0.2-0.1,0.4-0.3,0.5-0.5v0.6h0.6v-3.1h-0.6V110.5z M149.2,111.5c0,0.3-0.1,0.5-0.3,0.7
			c-0.2,0.2-0.4,0.3-0.7,0.3c-0.2,0-0.4-0.1-0.6-0.1c-0.2-0.1-0.3-0.2-0.4-0.4c-0.1-0.2-0.1-0.4-0.1-0.6s0.1-0.4,0.1-0.6
			c0.1-0.2,0.2-0.3,0.4-0.4c0.2-0.1,0.3-0.1,0.6-0.1c0.3,0,0.5,0.1,0.7,0.3c0.2,0.2,0.3,0.4,0.3,0.7V111.5z"/>
		<path class="st4" d="M151.1,110.5v-0.7h-0.6v3.1h0.6v-1.7c0-0.3,0.1-0.5,0.3-0.7s0.5-0.3,0.8-0.2v-0.5c-0.3,0-0.5,0.1-0.7,0.2
			C151.4,110.1,151.2,110.3,151.1,110.5z"/>
		<path class="st4" d="M154.5,111.3c-0.1-0.1-0.3-0.1-0.5-0.2c-0.2-0.1-0.4-0.1-0.5-0.2c-0.1-0.1-0.2-0.2-0.2-0.3
			c0-0.1,0.1-0.2,0.2-0.3c0.1-0.1,0.2-0.1,0.4-0.1c0.1,0,0.3,0,0.5,0.1c0.2,0.1,0.3,0.1,0.4,0.2l0.2-0.4c-0.1-0.1-0.3-0.2-0.5-0.2
			c-0.2-0.1-0.4-0.1-0.6-0.1c-0.3,0-0.6,0.1-0.8,0.2c-0.2,0.2-0.3,0.4-0.3,0.7c0,0.2,0.1,0.3,0.1,0.5c0.1,0.1,0.2,0.2,0.3,0.3
			c0.1,0.1,0.3,0.1,0.5,0.2c0.2,0.1,0.4,0.1,0.5,0.2c0.1,0.1,0.2,0.2,0.2,0.3s-0.1,0.2-0.2,0.3c-0.1,0.1-0.3,0.1-0.4,0.1
			c-0.2,0-0.4,0-0.6-0.1c-0.2-0.1-0.3-0.2-0.5-0.3l-0.2,0.4c0.2,0.1,0.3,0.2,0.6,0.3c0.2,0.1,0.5,0.1,0.7,0.1c0.3,0,0.6-0.1,0.8-0.2
			c0.2-0.2,0.3-0.4,0.3-0.7c0-0.2-0.1-0.4-0.1-0.5C154.7,111.5,154.6,111.4,154.5,111.3z"/>
		<path class="st4" d="M159.8,110.2c-0.3-0.2-0.6-0.3-1-0.3c-0.3,0-0.6,0.1-0.8,0.2c-0.2,0.1-0.4,0.3-0.6,0.6
			c-0.1,0.2-0.2,0.5-0.2,0.8c0,0.3,0.1,0.6,0.2,0.8c0.1,0.2,0.3,0.4,0.6,0.6c0.2,0.1,0.5,0.2,0.8,0.2c0.6,0,1-0.2,1.3-0.6l-0.3-0.3
			c-0.3,0.3-0.6,0.5-1,0.5c-0.2,0-0.4-0.1-0.6-0.2s-0.3-0.3-0.4-0.5l2.4-0.8C160.2,110.7,160,110.4,159.8,110.2z M157.7,111.5
			L157.7,111.5c0-0.4,0.1-0.7,0.3-0.9c0.2-0.2,0.4-0.3,0.7-0.3c0.4,0,0.7,0.2,0.9,0.6L157.7,111.5z"/>
		<path class="st4" d="M162.7,109.8c-0.6,0-1,0.2-1.2,0.7v-0.7h-0.6v3.1h0.6v-1.7c0-0.3,0.1-0.5,0.3-0.7c0.2-0.2,0.4-0.3,0.7-0.3
			c0.3,0,0.5,0.1,0.6,0.2c0.1,0.2,0.2,0.3,0.2,0.6v1.8h0.6v-2c0-0.4-0.1-0.7-0.3-0.9C163.3,110,163,109.8,162.7,109.8z"/>
		<path class="st4" d="M167.5,112.5c-0.3,0-0.4-0.2-0.4-0.6v-1.5h1V110h-1v-0.8h-0.6v2.9c0,0.3,0.1,0.6,0.2,0.7
			c0.2,0.2,0.4,0.3,0.6,0.3s0.5-0.1,0.7-0.2l-0.2-0.4C167.8,112.5,167.6,112.5,167.5,112.5z"/>
		<path class="st4" d="M171.1,110.5c-0.1-0.2-0.3-0.4-0.5-0.5s-0.4-0.2-0.7-0.2c-0.3,0-0.6,0.1-0.8,0.2c-0.2,0.1-0.4,0.3-0.5,0.6
			c-0.1,0.2-0.2,0.5-0.2,0.8c0,0.3,0.1,0.6,0.2,0.8c0.1,0.2,0.3,0.4,0.5,0.6c0.2,0.1,0.5,0.2,0.8,0.2c0.3,0,0.5-0.1,0.7-0.2
			c0.2-0.1,0.3-0.3,0.5-0.5v0.6h0.6v-3.1h-0.6V110.5z M171.1,111.5c0,0.3-0.1,0.5-0.3,0.7c-0.2,0.2-0.4,0.3-0.7,0.3
			c-0.2,0-0.4-0.1-0.6-0.1c-0.2-0.1-0.3-0.2-0.4-0.4c-0.1-0.2-0.1-0.4-0.1-0.6s0.1-0.4,0.1-0.6s0.2-0.3,0.4-0.4
			c0.2-0.1,0.3-0.1,0.6-0.1c0.3,0,0.5,0.1,0.7,0.3c0.2,0.2,0.3,0.4,0.3,0.7V111.5z"/>
		<polygon class="st4" points="175.1,109.9 174.4,109.9 173.6,111 172.9,109.9 172.2,109.9 173.3,111.4 172.1,113 172.8,113 
			173.6,111.8 174.5,113 175.1,113 174,111.4 		"/>
		<path class="st4" d="M178,110.5c-0.1-0.2-0.3-0.4-0.5-0.5s-0.4-0.2-0.7-0.2c-0.3,0-0.6,0.1-0.8,0.2s-0.4,0.3-0.5,0.6
			c-0.1,0.2-0.2,0.5-0.2,0.8c0,0.3,0.1,0.6,0.2,0.8c0.1,0.2,0.3,0.4,0.5,0.6s0.5,0.2,0.8,0.2c0.3,0,0.5-0.1,0.7-0.2
			c0.2-0.1,0.4-0.3,0.5-0.5v0.6h0.6v-3.1H178V110.5z M178,111.5c0,0.3-0.1,0.5-0.3,0.7c-0.2,0.2-0.4,0.3-0.7,0.3
			c-0.2,0-0.4-0.1-0.6-0.1c-0.2-0.1-0.3-0.2-0.4-0.4c-0.1-0.2-0.1-0.4-0.1-0.6s0.1-0.4,0.1-0.6c0.1-0.2,0.2-0.3,0.4-0.4
			c0.2-0.1,0.3-0.1,0.6-0.1c0.3,0,0.5,0.1,0.7,0.3s0.3,0.4,0.3,0.7V111.5z"/>
		<path class="st4" d="M180.4,112.5c-0.3,0-0.4-0.2-0.4-0.6v-1.5h1V110h-1v-0.8h-0.6v2.9c0,0.3,0.1,0.6,0.2,0.7
			c0.2,0.2,0.4,0.3,0.6,0.3s0.5-0.1,0.7-0.2l-0.1-0.4C180.7,112.5,180.5,112.5,180.4,112.5z"/>
		<path class="st4" d="M183.9,110.2c-0.3-0.2-0.6-0.3-1-0.3c-0.3,0-0.6,0.1-0.8,0.2s-0.4,0.3-0.6,0.6c-0.1,0.2-0.2,0.5-0.2,0.8
			c0,0.3,0.1,0.6,0.2,0.8c0.1,0.2,0.3,0.4,0.6,0.6c0.2,0.1,0.5,0.2,0.8,0.2c0.6,0,1-0.2,1.3-0.6l-0.3-0.3c-0.3,0.3-0.6,0.5-1,0.5
			c-0.2,0-0.4-0.1-0.6-0.2c-0.2-0.1-0.3-0.3-0.4-0.5l2.4-0.8C184.3,110.7,184.1,110.4,183.9,110.2z M181.9,111.5L181.9,111.5
			c0-0.4,0.1-0.7,0.3-0.9c0.2-0.2,0.4-0.3,0.7-0.3c0.4,0,0.7,0.2,0.9,0.6L181.9,111.5z"/>
		<path class="st4" d="M187.3,111.4c0,0.3-0.1,0.6-0.3,0.8c-0.2,0.2-0.4,0.3-0.7,0.3c-0.3,0-0.5-0.1-0.6-0.2
			c-0.1-0.1-0.2-0.3-0.2-0.6v-1.8H185v2c0,0.4,0.1,0.7,0.3,0.9c0.2,0.2,0.5,0.3,0.9,0.3c0.6,0,1-0.2,1.2-0.7v0.7h0.6v-3.1h-0.6
			V111.4z"/>
		<path class="st4" d="M189.3,110.5v-0.7h-0.6v3.1h0.6v-1.7c0-0.3,0.1-0.5,0.3-0.7s0.5-0.3,0.8-0.2v-0.5c-0.3,0-0.5,0.1-0.7,0.2
			C189.5,110.1,189.4,110.3,189.3,110.5z"/>
		<path class="st4" d="M192.9,111.6c-0.1-0.1-0.2-0.2-0.3-0.3c-0.1-0.1-0.3-0.1-0.5-0.2c-0.2-0.1-0.4-0.1-0.5-0.2
			c-0.1-0.1-0.2-0.2-0.2-0.3c0-0.1,0.1-0.2,0.2-0.3c0.1-0.1,0.2-0.1,0.4-0.1c0.1,0,0.3,0,0.5,0.1c0.2,0.1,0.3,0.1,0.4,0.2l0.2-0.4
			c-0.1-0.1-0.3-0.2-0.5-0.2c-0.2-0.1-0.4-0.1-0.6-0.1c-0.3,0-0.6,0.1-0.8,0.2c-0.2,0.2-0.3,0.4-0.3,0.7c0,0.2,0.1,0.3,0.1,0.5
			c0.1,0.1,0.2,0.2,0.3,0.3c0.1,0.1,0.3,0.1,0.5,0.2c0.2,0.1,0.4,0.1,0.5,0.2c0.1,0.1,0.2,0.2,0.2,0.3s-0.1,0.2-0.2,0.3
			c-0.1,0.1-0.3,0.1-0.4,0.1c-0.2,0-0.4,0-0.6-0.1c-0.2-0.1-0.3-0.2-0.5-0.3l-0.2,0.4c0.2,0.1,0.3,0.2,0.6,0.3
			c0.2,0.1,0.5,0.1,0.7,0.1c0.3,0,0.6-0.1,0.8-0.2c0.2-0.2,0.3-0.4,0.3-0.7C193.1,111.9,193,111.7,192.9,111.6z"/>
	</g>
</g>
<g id="Lines">
</g>
</svg>
